<svg height="511pt" fill='rgb(129, 129, 129)' viewBox="1 0 511.99951 511" width="511pt" xmlns="http://www.w3.org/2000/svg"><path d="m454.976562 57.523438c-75.960937-75.957032-199.71875-76.105469-275.820312 0-65.4375 65.4375-74.191406 165.554687-28.113281 240.28125-12.859375 12.859374-130.882813 130.886718-137.851563 137.851562-17.585937 17.585938-17.589844 46.058594 0 63.648438 17.550782 17.550781 46.101563 17.550781 63.652344 0 7.46875-7.464844 125.878906-125.878907 137.851562-137.847657 76.050782 46.894531 175.804688 36.363281 240.28125-28.113281 75.960938-75.960938 76.101563-199.71875 0-275.820312zm26.355469 122.90625h-30.066406c-3.332031-30.433594-16.769531-58.597657-38.683594-80.511719-21.914062-21.917969-50.078125-35.351563-80.511719-38.683594v-30.066406c37.125 3.359375 73.332032 19.214843 101.691407 47.574219 28.359375 28.359374 44.210937 64.558593 47.570312 101.6875zm-74.25 29.996093h13.945313c-3.171875 22.398438-13.425782 43.070313-29.660156 59.308594-16.238282 16.238281-36.898438 26.488281-59.296876 29.660156v-13.945312c0-8.285157-6.71875-15.003907-15.003906-15.003907s-15.003906 6.71875-15.003906 15.003907v13.945312c-22.398438-3.171875-43.058594-13.421875-59.292969-29.660156-16.238281-16.238281-26.492187-36.898437-29.664062-59.296875h13.945312c8.285157 0 15.003907-6.71875 15.003907-15.003906s-6.71875-15.003906-15.003907-15.003906h-13.945312c3.171875-22.398438 13.425781-43.058594 29.664062-59.292969 16.234375-16.238281 36.894531-26.492188 59.292969-29.664063v13.945313c0 8.285156 6.71875 15.003906 15.003906 15.003906s15.003906-6.71875 15.003906-15.003906v-13.945313c22.398438 3.167969 43.058594 13.421875 59.296876 29.660156 16.238281 16.238282 26.488281 36.898438 29.660156 59.296876h-13.945313c-8.285156 0-15.003906 6.71875-15.003906 15.003906s6.71875 14.992187 15.003906 14.992187zm-206.710937 101.699219c-28.359375-28.359375-44.210938-64.558594-47.570313-101.6875h30.066407c3.332031 30.433594 16.765624 58.597656 38.683593 80.511719 21.910157 21.914062 50.078125 35.351562 80.511719 38.679687v30.070313c-37.128906-3.359375-73.328125-19.210938-101.691406-47.574219zm0-233.386719c28.367187-28.363281 64.558594-44.214843 101.691406-47.570312v30.066406c-30.433594 3.332031-58.597656 16.765625-80.511719 38.679687-21.914062 21.917969-35.351562 50.082032-38.683593 80.515626h-30.066407c3.359375-37.128907 19.210938-73.328126 47.570313-101.691407zm-144.746094 399.351563c-5.847656 5.847656-15.367188 5.847656-21.214844 0-5.863281-5.863282-5.863281-15.355469 0-21.21875l31.824219-31.824219 21.21875 21.214844zm53.042969-53.042969-21.214844-21.21875 81.5-81.496094c3.230469 3.769531 6.632813 7.441407 10.203125 11.011719 3.570312 3.566406 7.242188 6.96875 11.011719 10.203125zm325.089843-112.921875c-28.359374 28.363281-64.5625 44.214844-101.6875 47.574219v-30.066407c30.433594-3.332031 58.597657-16.769531 80.511719-38.683593 21.914063-21.914063 35.351563-50.089844 38.679688-80.523438h30.070312c-3.359375 37.128907-19.210937 73.339844-47.574219 101.699219zm0 0"/><path d="m383.785156 152.007812c-7.410156-3.703124-16.421875-.699218-20.128906 6.710938l-23.292969 46.59375-46.59375-23.296875c-5.777343-2.890625-12.753906-1.757813-17.316406 2.808594l-30.003906 30.007812c-5.859375 5.859375-5.859375 15.355469 0 21.214844 5.855469 5.859375 15.355469 5.859375 21.214843 0l22.359376-22.359375 50.339843 25.171875c7.421875 3.710937 16.425781.683594 20.125-6.710937l30.007813-60.011719c3.703125-7.410157.699218-16.421875-6.710938-20.128907zm0 0"/></svg>